<svg id="Layer_1" data-name="Layer 1" xmlns="http://www.w3.org/2000/svg" viewBox="0 0 2 0.38"><defs><style>.cls-1{fill:#ffd340;}</style></defs><path class="cls-1" d="M39.27,50.11s-.08.15-.2.16a.36.36,0,0,1-.21-.08h0l0,0S39,50,39,50A.34.34,0,0,1,39.27,50.11Z" transform="translate(-37.28 -50)"/><path class="cls-1" d="M38.75,50.29a.34.34,0,0,1-.24.09.32.32,0,0,1-.17-.15l0,0s0,0,0,0h0a.29.29,0,0,1,.22-.08C38.68,50.14,38.75,50.29,38.75,50.29Z" transform="translate(-37.28 -50)"/><path class="cls-1" d="M38.23,50.24a.34.34,0,0,1-.22.12.31.31,0,0,1-.19-.13h0l0,0a.35.35,0,0,1,.21-.11C38.15,50.09,38.23,50.24,38.23,50.24Z" transform="translate(-37.28 -50)"/><path class="cls-1" d="M37.72,50.11s-.08.15-.2.16a.31.31,0,0,1-.2-.08h0s0,0,0,0l0,0s.09-.14.18-.15A.34.34,0,0,1,37.72,50.11Z" transform="translate(-37.28 -50)"/></svg>