<svg id="Layer_7" data-name="Layer 7" xmlns="http://www.w3.org/2000/svg" viewBox="0 0 23.54 17.12"><defs><style>.cls-1{fill:none;stroke:#fff;stroke-miterlimit:10;stroke-width:0.75px;}</style></defs><path class="cls-1" d="M74.72,72.61V62.14a1,1,0,0,1,.07-.34L75.92,59a.34.34,0,0,1,.31-.21h2a.46.46,0,0,1,.4.23l1.67,2.8h3.9a1.82,1.82,0,0,1,1.28.29A1.74,1.74,0,0,1,86,63.3v9.31Z" transform="translate(-67.75 -57.61)"/><rect class="cls-1" x="6.16" y="15" width="12.81" height="1.75" rx="0.21"/><polyline class="cls-1" points="7.02 12.68 2.28 6.86 4.65 4.09 7.02 6.08"/><path class="cls-1" d="M72.17,61.84l-2,2.37c-.15.18-.32.09-.59.05L68.17,64c-.18-.15.26-.77.41-.94l2-2.49c.15-.18.69-.75.86-.6l.69,1.29C72.2,61.48,72.32,61.66,72.17,61.84Z" transform="translate(-67.75 -57.61)"/><path class="cls-1" d="M81.46,61.85A4.31,4.31,0,0,1,85.74,58h.88a4.31,4.31,0,0,1,4.3,4.3v4.87a4.3,4.3,0,0,1-4.3,4.3h-.88" transform="translate(-67.75 -57.61)"/><path class="cls-1" d="M83.22,61.85a2.77,2.77,0,0,1,2.63-1.93h.48a2.75,2.75,0,0,1,2.75,2.75V67a2.76,2.76,0,0,1-2.75,2.76h-.48" transform="translate(-67.75 -57.61)"/></svg>