<svg id="Layer_6" data-name="Layer 6" xmlns="http://www.w3.org/2000/svg" viewBox="0 0 23.54 17.12"><defs><style>.cls-1{fill:none;stroke:#ffd340;stroke-miterlimit:10;stroke-width:0.75px;}</style></defs><path class="cls-1" d="M78.2,81.94V71.46a.83.83,0,0,1,.07-.34l1.13-2.76a.33.33,0,0,1,.31-.21h2a.46.46,0,0,1,.4.22l1.67,2.8h3.9a1.82,1.82,0,0,1,1.28.29,1.75,1.75,0,0,1,.46,1.17v9.31Z" transform="translate(-71.23 -66.94)"/><rect class="cls-1" x="6.16" y="15" width="12.81" height="1.75" rx="0.21"/><polyline class="cls-1" points="7.02 12.68 2.28 6.86 4.65 4.09 7.02 6.08"/><path class="cls-1" d="M75.65,71.16l-2,2.38c-.15.17-.32.08-.59,0l-1.4-.27c-.18-.15.26-.77.41-.94l2-2.49c.14-.18.69-.74.86-.59l.68,1.28C75.68,70.81,75.8,71,75.65,71.16Z" transform="translate(-71.23 -66.94)"/><path class="cls-1" d="M84.94,71.17a4.31,4.31,0,0,1,4.28-3.86h.88a4.31,4.31,0,0,1,4.3,4.3v4.87a4.31,4.31,0,0,1-4.3,4.31h-.88" transform="translate(-71.23 -66.94)"/><path class="cls-1" d="M86.7,71.17a2.76,2.76,0,0,1,2.63-1.93h.48A2.76,2.76,0,0,1,92.56,72v4.28A2.75,2.75,0,0,1,89.81,79h-.48" transform="translate(-71.23 -66.94)"/></svg>